<svg width="215" height="46" viewBox="0 0 215 46" fill="none" xmlns="http://www.w3.org/2000/svg">
<path d="M7.68 29.3C6.16 29.3 4.94 28.98 4.02 28.34C3.12 27.68 2.46 26.73 2.04 25.49C1.64 24.25 1.44 22.76 1.44 21.02V12.89C1.44 11.11 1.62 9.6 1.98 8.36C2.36 7.1 3.02 6.14 3.96 5.48C4.92 4.82 6.25 4.49 7.95 4.49C9.47 4.49 10.69 4.75 11.61 5.27C12.55 5.77 13.23 6.55 13.65 7.61C14.07 8.65 14.28 9.97 14.28 11.57V12.47H11.1V11.72C11.1 10.66 11.03 9.8 10.89 9.14C10.75 8.46 10.46 7.96 10.02 7.64C9.6 7.3 8.93 7.13 8.01 7.13C7.01 7.13 6.28 7.36 5.82 7.82C5.38 8.28 5.1 8.91 4.98 9.71C4.88 10.49 4.83 11.38 4.83 12.38V21.38C4.83 22.54 4.91 23.51 5.07 24.29C5.25 25.07 5.58 25.65 6.06 26.03C6.54 26.41 7.22 26.6 8.1 26.6C8.98 26.6 9.66 26.39 10.14 25.97C10.62 25.55 10.95 24.93 11.13 24.11C11.31 23.29 11.4 22.27 11.4 21.05V19.37H8.31V16.97H14.46V29H12.33L12 26.21C11.68 27.11 11.18 27.85 10.5 28.43C9.82 29.01 8.88 29.3 7.68 29.3ZM18.1247 29V4.7H21.4547V29H18.1247ZM31.6561 29.27C29.8961 29.27 28.5461 28.92 27.6061 28.22C26.6661 27.52 26.0261 26.54 25.6861 25.28C25.3461 24 25.1761 22.51 25.1761 20.81V4.7H28.4161V20.96C28.4161 22 28.4861 22.95 28.6261 23.81C28.7661 24.67 29.0661 25.35 29.5261 25.85C30.0061 26.35 30.7161 26.6 31.6561 26.6C32.6161 26.6 33.3261 26.35 33.7861 25.85C34.2461 25.35 34.5461 24.67 34.6861 23.81C34.8261 22.95 34.8961 22 34.8961 20.96V4.7H38.1061V20.81C38.1061 22.51 37.9361 24 37.5961 25.28C37.2561 26.54 36.6161 27.52 35.6761 28.22C34.7561 28.92 33.4161 29.27 31.6561 29.27ZM47.4052 29.27C46.0052 29.27 44.8352 28.97 43.8952 28.37C42.9752 27.77 42.2752 26.94 41.7952 25.88C41.3152 24.82 41.0352 23.59 40.9552 22.19L43.9552 21.38C44.0152 22.24 44.1452 23.07 44.3452 23.87C44.5652 24.67 44.9152 25.33 45.3952 25.85C45.8752 26.35 46.5452 26.6 47.4052 26.6C48.2852 26.6 48.9452 26.36 49.3852 25.88C49.8452 25.38 50.0752 24.67 50.0752 23.75C50.0752 22.65 49.8252 21.77 49.3252 21.11C48.8252 20.43 48.1952 19.75 47.4352 19.07L43.3552 15.47C42.5552 14.77 41.9652 14.01 41.5852 13.19C41.2052 12.35 41.0152 11.32 41.0152 10.1C41.0152 8.32 41.5252 6.94 42.5452 5.96C43.5652 4.98 44.9552 4.49 46.7152 4.49C47.6752 4.49 48.5152 4.62 49.2352 4.88C49.9752 5.12 50.5852 5.5 51.0652 6.02C51.5652 6.54 51.9552 7.2 52.2352 8C52.5352 8.78 52.7352 9.7 52.8352 10.76L49.9552 11.54C49.8952 10.74 49.7752 10.01 49.5952 9.35C49.4152 8.67 49.0952 8.13 48.6352 7.73C48.1952 7.31 47.5552 7.1 46.7152 7.1C45.8752 7.1 45.2152 7.33 44.7352 7.79C44.2752 8.23 44.0452 8.89 44.0452 9.77C44.0452 10.51 44.1652 11.12 44.4052 11.6C44.6652 12.08 45.0752 12.57 45.6352 13.07L49.7452 16.67C50.6652 17.47 51.4752 18.43 52.1752 19.55C52.8752 20.65 53.2252 21.96 53.2252 23.48C53.2252 24.68 52.9752 25.72 52.4752 26.6C51.9752 27.46 51.2852 28.12 50.4052 28.58C49.5452 29.04 48.5452 29.27 47.4052 29.27ZM55.8548 29V4.7H65.2748V7.22H59.2448V15.26H64.1348V17.66H59.2448V26.57H65.3348V29H55.8548ZM68.0716 29V4.7H74.1016C75.5616 4.7 76.7216 4.97 77.5816 5.51C78.4616 6.03 79.1016 6.79 79.5016 7.79C79.9016 8.79 80.1016 10 80.1016 11.42C80.1016 12.7 79.8716 13.81 79.4116 14.75C78.9716 15.69 78.3116 16.42 77.4316 16.94C76.5516 17.44 75.4516 17.69 74.1316 17.69H71.4616V29H68.0716ZM71.4616 15.26H73.0216C74.0016 15.26 74.7716 15.15 75.3316 14.93C75.8916 14.71 76.2916 14.33 76.5316 13.79C76.7716 13.23 76.8916 12.45 76.8916 11.45C76.8916 10.29 76.8016 9.4 76.6216 8.78C76.4616 8.16 76.1116 7.73 75.5716 7.49C75.0316 7.25 74.1916 7.13 73.0516 7.13H71.4616V15.26ZM82.4857 29V4.7H88.5157C89.9757 4.7 91.1357 4.97 91.9957 5.51C92.8757 6.03 93.5157 6.79 93.9157 7.79C94.3157 8.79 94.5157 10 94.5157 11.42C94.5157 12.7 94.2857 13.81 93.8257 14.75C93.3857 15.69 92.7257 16.42 91.8457 16.94C90.9657 17.44 89.8657 17.69 88.5457 17.69H85.8757V29H82.4857ZM85.8757 15.26H87.4357C88.4157 15.26 89.1857 15.15 89.7457 14.93C90.3057 14.71 90.7057 14.33 90.9457 13.79C91.1857 13.23 91.3057 12.45 91.3057 11.45C91.3057 10.29 91.2157 9.4 91.0357 8.78C90.8757 8.16 90.5257 7.73 89.9857 7.49C89.4457 7.25 88.6057 7.13 87.4657 7.13H85.8757V15.26ZM96.8998 29V4.7H106.32V7.22H100.29V15.26H105.18V17.66H100.29V26.57H106.38V29H96.8998ZM121.702 29.27C120.302 29.27 119.132 28.97 118.192 28.37C117.272 27.77 116.572 26.94 116.092 25.88C115.612 24.82 115.332 23.59 115.252 22.19L118.252 21.38C118.312 22.24 118.442 23.07 118.642 23.87C118.862 24.67 119.212 25.33 119.692 25.85C120.172 26.35 120.842 26.6 121.702 26.6C122.582 26.6 123.242 26.36 123.682 25.88C124.142 25.38 124.372 24.67 124.372 23.75C124.372 22.65 124.122 21.77 123.622 21.11C123.122 20.43 122.492 19.75 121.732 19.07L117.652 15.47C116.852 14.77 116.262 14.01 115.882 13.19C115.502 12.35 115.312 11.32 115.312 10.1C115.312 8.32 115.822 6.94 116.842 5.96C117.862 4.98 119.252 4.49 121.012 4.49C121.972 4.49 122.812 4.62 123.532 4.88C124.272 5.12 124.882 5.5 125.362 6.02C125.862 6.54 126.252 7.2 126.532 8C126.832 8.78 127.032 9.7 127.132 10.76L124.252 11.54C124.192 10.74 124.072 10.01 123.892 9.35C123.712 8.67 123.392 8.13 122.932 7.73C122.492 7.31 121.852 7.1 121.012 7.1C120.172 7.1 119.512 7.33 119.032 7.79C118.572 8.23 118.342 8.89 118.342 9.77C118.342 10.51 118.462 11.12 118.702 11.6C118.962 12.08 119.372 12.57 119.932 13.07L124.042 16.67C124.962 17.47 125.772 18.43 126.472 19.55C127.172 20.65 127.522 21.96 127.522 23.48C127.522 24.68 127.272 25.72 126.772 26.6C126.272 27.46 125.582 28.12 124.702 28.58C123.842 29.04 122.842 29.27 121.702 29.27ZM130.152 29V4.7H136.182C137.642 4.7 138.802 4.97 139.662 5.51C140.542 6.03 141.182 6.79 141.582 7.79C141.982 8.79 142.182 10 142.182 11.42C142.182 12.7 141.952 13.81 141.492 14.75C141.052 15.69 140.392 16.42 139.512 16.94C138.632 17.44 137.532 17.69 136.212 17.69H133.542V29H130.152ZM133.542 15.26H135.102C136.082 15.26 136.852 15.15 137.412 14.93C137.972 14.71 138.372 14.33 138.612 13.79C138.852 13.23 138.972 12.45 138.972 11.45C138.972 10.29 138.882 9.4 138.702 8.78C138.542 8.16 138.192 7.73 137.652 7.49C137.112 7.25 136.272 7.13 135.132 7.13H133.542V15.26ZM142.103 29L147.263 4.7H150.533L155.723 29H152.513L151.403 22.88H146.453L145.283 29H142.103ZM146.903 20.45H150.953L148.913 9.5L146.903 20.45ZM159.892 29V7.22H155.782V4.7H167.272V7.22H163.282V29H159.892ZM168.236 29L173.396 4.7H176.666L181.856 29H178.646L177.536 22.88H172.586L171.416 29H168.236ZM173.036 20.45H177.086L175.046 9.5L173.036 20.45ZM184.322 29V4.7H189.212C190.832 4.7 192.172 4.92 193.232 5.36C194.292 5.78 195.072 6.47 195.572 7.43C196.092 8.37 196.352 9.61 196.352 11.15C196.352 12.09 196.252 12.95 196.052 13.73C195.852 14.49 195.532 15.14 195.092 15.68C194.652 16.2 194.072 16.58 193.352 16.82L196.802 29H193.532L190.352 17.6H187.712V29H184.322ZM187.712 15.17H189.002C189.962 15.17 190.742 15.05 191.342 14.81C191.942 14.57 192.382 14.16 192.662 13.58C192.942 13 193.082 12.19 193.082 11.15C193.082 9.73 192.822 8.71 192.302 8.09C191.782 7.45 190.752 7.13 189.212 7.13H187.712V15.17ZM206.088 29.27C204.448 29.27 203.138 28.95 202.158 28.31C201.178 27.67 200.478 26.76 200.058 25.58C199.638 24.38 199.428 22.98 199.428 21.38V12.17C199.428 10.57 199.638 9.2 200.058 8.06C200.498 6.9 201.198 6.02 202.158 5.42C203.138 4.8 204.448 4.49 206.088 4.49C207.728 4.49 209.028 4.8 209.988 5.42C210.948 6.04 211.638 6.92 212.058 8.06C212.498 9.2 212.718 10.57 212.718 12.17V21.41C212.718 22.99 212.498 24.37 212.058 25.55C211.638 26.73 210.948 27.65 209.988 28.31C209.028 28.95 207.728 29.27 206.088 29.27ZM206.088 26.6C206.988 26.6 207.668 26.42 208.128 26.06C208.588 25.68 208.898 25.16 209.058 24.5C209.218 23.82 209.298 23.03 209.298 22.13V11.48C209.298 10.58 209.218 9.81 209.058 9.17C208.898 8.51 208.588 8.01 208.128 7.67C207.668 7.31 206.988 7.13 206.088 7.13C205.188 7.13 204.498 7.31 204.018 7.67C203.558 8.01 203.248 8.51 203.088 9.17C202.928 9.81 202.848 10.58 202.848 11.48V22.13C202.848 23.03 202.928 23.82 203.088 24.5C203.248 25.16 203.558 25.68 204.018 26.06C204.498 26.42 205.188 26.6 206.088 26.6Z" fill="#FFFFF8"/>
<path d="M83.4268 41.6875L85.0605 35.6035H85.8467L85.7578 36.8135L84.1172 43H83.3584L83.4268 41.6875ZM82.5381 35.6035L83.9121 41.7559L83.9463 43H83.1465L81.3418 35.6035H82.5381ZM87.248 41.708L88.5469 35.6035H89.7363L87.9316 43H87.1455L87.248 41.708ZM86.0176 35.6035L87.6104 41.585L87.7197 43H86.9678L85.2725 36.7998L85.1836 35.6035H86.0176ZM93.5202 43.1367C93.0781 43.1367 92.6793 43.0706 92.3239 42.9385C91.9684 42.8063 91.6653 42.6058 91.4147 42.3369C91.164 42.0635 90.9726 41.7194 90.8405 41.3047C90.7083 40.89 90.6422 40.4001 90.6422 39.835V39.001C90.6422 38.3493 90.7174 37.7979 90.8678 37.3467C91.0228 36.8955 91.2301 36.5332 91.4899 36.2598C91.7496 35.9818 92.0436 35.7812 92.3717 35.6582C92.6998 35.5306 93.0371 35.4668 93.3834 35.4668C93.8483 35.4668 94.2448 35.542 94.5729 35.6924C94.901 35.8428 95.1676 36.0661 95.3727 36.3623C95.5778 36.6585 95.7282 37.0231 95.8239 37.4561C95.9241 37.889 95.9743 38.388 95.9743 38.9531V39.6572H91.3532V38.625H94.7643V38.4541C94.7461 38.0713 94.6937 37.734 94.6071 37.4424C94.525 37.1507 94.3883 36.9229 94.1969 36.7588C94.0055 36.5902 93.7343 36.5059 93.3834 36.5059C93.1601 36.5059 92.9528 36.5446 92.7614 36.6221C92.5745 36.695 92.4127 36.8249 92.276 37.0117C92.1439 37.194 92.039 37.4469 91.9616 37.7705C91.8886 38.0941 91.8522 38.5042 91.8522 39.001V39.835C91.8522 40.2314 91.8886 40.5732 91.9616 40.8604C92.039 41.1429 92.1507 41.3776 92.2965 41.5645C92.4469 41.7467 92.6292 41.8835 92.8434 41.9746C93.0621 42.0612 93.3105 42.1045 93.5885 42.1045C93.9941 42.1045 94.3291 42.027 94.5934 41.8721C94.8577 41.7126 95.0879 41.5098 95.2838 41.2637L95.9196 42.0225C95.7874 42.2093 95.6142 42.3893 95.4 42.5625C95.1904 42.7311 94.9306 42.8701 94.6207 42.9795C94.3154 43.0843 93.9485 43.1367 93.5202 43.1367ZM97.2971 32.5H98.5071V41.5645L98.4046 43H97.2971V32.5ZM102.657 38.9668V39.6572C102.657 40.2406 102.602 40.751 102.492 41.1885C102.388 41.6214 102.23 41.9837 102.021 42.2754C101.811 42.5625 101.556 42.779 101.255 42.9248C100.954 43.0661 100.61 43.1367 100.223 43.1367C99.8401 43.1367 99.5097 43.0592 99.2317 42.9043C98.9537 42.7493 98.7213 42.526 98.5345 42.2344C98.3476 41.9427 98.1995 41.5895 98.0901 41.1748C97.9853 40.7601 97.9124 40.293 97.8714 39.7734V38.8506C97.9124 38.3265 97.9853 37.8571 98.0901 37.4424C98.1949 37.0231 98.3408 36.6676 98.5276 36.376C98.7145 36.0798 98.9469 35.8542 99.2249 35.6992C99.5029 35.5443 99.8333 35.4668 100.216 35.4668C100.608 35.4668 100.954 35.5352 101.255 35.6719C101.56 35.8086 101.816 36.0205 102.021 36.3076C102.23 36.5902 102.388 36.9525 102.492 37.3945C102.602 37.832 102.657 38.3561 102.657 38.9668ZM101.447 39.6572V38.9668C101.447 38.5566 101.419 38.1989 101.365 37.8936C101.314 37.5882 101.23 37.3353 101.112 37.1348C100.993 36.9342 100.834 36.7839 100.633 36.6836C100.437 36.5833 100.193 36.5332 99.9016 36.5332C99.6555 36.5332 99.4391 36.5833 99.2522 36.6836C99.0699 36.7839 98.9127 36.9206 98.7805 37.0938C98.6484 37.2624 98.539 37.4561 98.4524 37.6748C98.3658 37.889 98.302 38.1123 98.261 38.3447V40.2861C98.3203 40.5824 98.4137 40.8672 98.5413 41.1406C98.6735 41.4095 98.8512 41.6305 99.0745 41.8037C99.2978 41.9769 99.5758 42.0635 99.9085 42.0635C100.186 42.0635 100.421 42.0156 100.613 41.9199C100.809 41.8242 100.968 41.6784 101.091 41.4824C101.214 41.2819 101.303 41.0312 101.358 40.7305C101.417 40.4251 101.447 40.0674 101.447 39.6572ZM111.01 41.5645V32.5H112.213V43H111.113L111.01 41.5645ZM106.875 39.6572V38.9668C106.875 38.3561 106.934 37.832 107.052 37.3945C107.171 36.9525 107.339 36.5902 107.558 36.3076C107.777 36.0205 108.039 35.8086 108.344 35.6719C108.65 35.5352 108.987 35.4668 109.356 35.4668C109.739 35.4668 110.067 35.5443 110.34 35.6992C110.618 35.8542 110.851 36.0798 111.038 36.376C111.225 36.6676 111.37 37.0231 111.475 37.4424C111.585 37.8571 111.657 38.3265 111.694 38.8506V39.7734C111.653 40.293 111.578 40.7601 111.468 41.1748C111.364 41.5895 111.218 41.9427 111.031 42.2344C110.844 42.526 110.612 42.7493 110.334 42.9043C110.056 43.0592 109.725 43.1367 109.342 43.1367C108.978 43.1367 108.645 43.0661 108.344 42.9248C108.044 42.779 107.781 42.5625 107.558 42.2754C107.339 41.9837 107.171 41.6214 107.052 41.1885C106.934 40.751 106.875 40.2406 106.875 39.6572ZM108.085 38.9668V39.6572C108.085 40.0674 108.114 40.4251 108.173 40.7305C108.233 41.0312 108.326 41.2819 108.454 41.4824C108.581 41.6784 108.743 41.8242 108.939 41.9199C109.14 42.0156 109.379 42.0635 109.657 42.0635C109.994 42.0635 110.27 41.9814 110.484 41.8174C110.698 41.6533 110.869 41.4368 110.997 41.168C111.129 40.8945 111.234 40.6006 111.311 40.2861V38.3447C111.266 38.1123 111.199 37.889 111.113 37.6748C111.026 37.4561 110.917 37.2624 110.785 37.0938C110.657 36.9206 110.5 36.7839 110.313 36.6836C110.131 36.5833 109.917 36.5332 109.67 36.5332C109.392 36.5332 109.151 36.5833 108.946 36.6836C108.745 36.7839 108.581 36.9342 108.454 37.1348C108.331 37.3353 108.237 37.5882 108.173 37.8936C108.114 38.1989 108.085 38.5566 108.085 38.9668ZM116.585 43.1367C116.143 43.1367 115.744 43.0706 115.389 42.9385C115.033 42.8063 114.73 42.6058 114.48 42.3369C114.229 42.0635 114.038 41.7194 113.905 41.3047C113.773 40.89 113.707 40.4001 113.707 39.835V39.001C113.707 38.3493 113.782 37.7979 113.933 37.3467C114.088 36.8955 114.295 36.5332 114.555 36.2598C114.815 35.9818 115.109 35.7812 115.437 35.6582C115.765 35.5306 116.102 35.4668 116.448 35.4668C116.913 35.4668 117.31 35.542 117.638 35.6924C117.966 35.8428 118.233 36.0661 118.438 36.3623C118.643 36.6585 118.793 37.0231 118.889 37.4561C118.989 37.889 119.039 38.388 119.039 38.9531V39.6572H114.418V38.625H117.829V38.4541C117.811 38.0713 117.759 37.734 117.672 37.4424C117.59 37.1507 117.453 36.9229 117.262 36.7588C117.071 36.5902 116.799 36.5059 116.448 36.5059C116.225 36.5059 116.018 36.5446 115.826 36.6221C115.64 36.695 115.478 36.8249 115.341 37.0117C115.209 37.194 115.104 37.4469 115.027 37.7705C114.954 38.0941 114.917 38.5042 114.917 39.001V39.835C114.917 40.2314 114.954 40.5732 115.027 40.8604C115.104 41.1429 115.216 41.3776 115.362 41.5645C115.512 41.7467 115.694 41.8835 115.908 41.9746C116.127 42.0612 116.376 42.1045 116.654 42.1045C117.059 42.1045 117.394 42.027 117.658 41.8721C117.923 41.7126 118.153 41.5098 118.349 41.2637L118.985 42.0225C118.852 42.2093 118.679 42.3893 118.465 42.5625C118.255 42.7311 117.996 42.8701 117.686 42.9795C117.38 43.0843 117.014 43.1367 116.585 43.1367ZM122.181 41.8584L123.766 35.6035H124.997L122.803 43H122.003L122.181 41.8584ZM120.902 35.6035L122.556 41.8926L122.686 43H121.893L119.672 35.6035H120.902ZM128.665 43.1367C128.222 43.1367 127.824 43.0706 127.468 42.9385C127.113 42.8063 126.81 42.6058 126.559 42.3369C126.308 42.0635 126.117 41.7194 125.985 41.3047C125.853 40.89 125.787 40.4001 125.787 39.835V39.001C125.787 38.3493 125.862 37.7979 126.012 37.3467C126.167 36.8955 126.374 36.5332 126.634 36.2598C126.894 35.9818 127.188 35.7812 127.516 35.6582C127.844 35.5306 128.181 35.4668 128.528 35.4668C128.993 35.4668 129.389 35.542 129.717 35.6924C130.045 35.8428 130.312 36.0661 130.517 36.3623C130.722 36.6585 130.873 37.0231 130.968 37.4561C131.069 37.889 131.119 38.388 131.119 38.9531V39.6572H126.498V38.625H129.909V38.4541C129.89 38.0713 129.838 37.734 129.751 37.4424C129.669 37.1507 129.533 36.9229 129.341 36.7588C129.15 36.5902 128.879 36.5059 128.528 36.5059C128.305 36.5059 128.097 36.5446 127.906 36.6221C127.719 36.695 127.557 36.8249 127.42 37.0117C127.288 37.194 127.183 37.4469 127.106 37.7705C127.033 38.0941 126.997 38.5042 126.997 39.001V39.835C126.997 40.2314 127.033 40.5732 127.106 40.8604C127.183 41.1429 127.295 41.3776 127.441 41.5645C127.591 41.7467 127.774 41.8835 127.988 41.9746C128.207 42.0612 128.455 42.1045 128.733 42.1045C129.138 42.1045 129.473 42.027 129.738 41.8721C130.002 41.7126 130.232 41.5098 130.428 41.2637L131.064 42.0225C130.932 42.2093 130.759 42.3893 130.544 42.5625C130.335 42.7311 130.075 42.8701 129.765 42.9795C129.46 43.0843 129.093 43.1367 128.665 43.1367ZM133.74 32.5V43H132.537V32.5H133.74ZM135.261 39.6572V38.9531C135.261 38.3789 135.334 37.8753 135.48 37.4424C135.626 37.0049 135.829 36.6403 136.089 36.3486C136.348 36.057 136.651 35.8382 136.998 35.6924C137.344 35.542 137.716 35.4668 138.112 35.4668C138.518 35.4668 138.894 35.542 139.24 35.6924C139.586 35.8382 139.889 36.057 140.149 36.3486C140.414 36.6403 140.619 37.0049 140.764 37.4424C140.91 37.8753 140.983 38.3789 140.983 38.9531V39.6572C140.983 40.2314 140.91 40.7373 140.764 41.1748C140.619 41.6077 140.416 41.9701 140.156 42.2617C139.896 42.5534 139.593 42.7721 139.247 42.918C138.9 43.0638 138.527 43.1367 138.126 43.1367C137.725 43.1367 137.351 43.0638 137.005 42.918C136.658 42.7721 136.353 42.5534 136.089 42.2617C135.829 41.9701 135.626 41.6077 135.48 41.1748C135.334 40.7373 135.261 40.2314 135.261 39.6572ZM136.471 38.9531V39.6572C136.471 40.0628 136.512 40.4183 136.594 40.7236C136.677 41.029 136.793 41.2842 136.943 41.4893C137.094 41.6943 137.269 41.8493 137.469 41.9541C137.67 42.0544 137.889 42.1045 138.126 42.1045C138.399 42.1045 138.638 42.0544 138.844 41.9541C139.053 41.8493 139.226 41.6943 139.363 41.4893C139.5 41.2842 139.602 41.029 139.671 40.7236C139.739 40.4183 139.773 40.0628 139.773 39.6572V38.9531C139.773 38.5475 139.732 38.1943 139.65 37.8936C139.568 37.5882 139.452 37.333 139.302 37.1279C139.151 36.9183 138.973 36.7633 138.768 36.6631C138.568 36.5583 138.349 36.5059 138.112 36.5059C137.88 36.5059 137.663 36.5583 137.463 36.6631C137.262 36.7633 137.087 36.9183 136.936 37.1279C136.79 37.333 136.677 37.5882 136.594 37.8936C136.512 38.1943 136.471 38.5475 136.471 38.9531ZM143.612 37.0254V45.8438H142.402V35.6035H143.502L143.612 37.0254ZM147.747 38.9668V39.6572C147.747 40.2406 147.693 40.751 147.583 41.1885C147.479 41.6214 147.321 41.9837 147.112 42.2754C146.907 42.5625 146.654 42.779 146.353 42.9248C146.052 43.0661 145.708 43.1367 145.321 43.1367C144.933 43.1367 144.596 43.0638 144.309 42.918C144.026 42.7676 143.787 42.5511 143.591 42.2686C143.4 41.986 143.247 41.6465 143.133 41.25C143.024 40.849 142.949 40.4001 142.908 39.9033V38.8506C142.949 38.3265 143.024 37.8571 143.133 37.4424C143.243 37.0231 143.393 36.6676 143.584 36.376C143.78 36.0798 144.02 35.8542 144.302 35.6992C144.589 35.5443 144.924 35.4668 145.307 35.4668C145.704 35.4668 146.052 35.5352 146.353 35.6719C146.658 35.8086 146.913 36.0205 147.119 36.3076C147.328 36.5902 147.485 36.9525 147.59 37.3945C147.695 37.832 147.747 38.3561 147.747 38.9668ZM146.537 39.6572V38.9668C146.537 38.5566 146.506 38.1989 146.442 37.8936C146.383 37.5882 146.287 37.3353 146.155 37.1348C146.023 36.9342 145.856 36.7839 145.656 36.6836C145.455 36.5833 145.214 36.5332 144.931 36.5332C144.69 36.5332 144.475 36.5833 144.288 36.6836C144.106 36.7839 143.949 36.9206 143.817 37.0938C143.685 37.2624 143.575 37.4561 143.489 37.6748C143.402 37.889 143.338 38.1123 143.297 38.3447V40.416C143.375 40.7077 143.477 40.9834 143.605 41.2432C143.732 41.4984 143.903 41.7057 144.118 41.8652C144.336 42.0247 144.612 42.1045 144.945 42.1045C145.223 42.1045 145.462 42.0544 145.662 41.9541C145.863 41.8538 146.027 41.7035 146.155 41.5029C146.287 41.2979 146.383 41.0426 146.442 40.7373C146.506 40.4274 146.537 40.0674 146.537 39.6572ZM151.812 43.1367C151.37 43.1367 150.971 43.0706 150.615 42.9385C150.26 42.8063 149.957 42.6058 149.706 42.3369C149.455 42.0635 149.264 41.7194 149.132 41.3047C149 40.89 148.934 40.4001 148.934 39.835V39.001C148.934 38.3493 149.009 37.7979 149.159 37.3467C149.314 36.8955 149.522 36.5332 149.781 36.2598C150.041 35.9818 150.335 35.7812 150.663 35.6582C150.991 35.5306 151.328 35.4668 151.675 35.4668C152.14 35.4668 152.536 35.542 152.864 35.6924C153.192 35.8428 153.459 36.0661 153.664 36.3623C153.869 36.6585 154.02 37.0231 154.115 37.4561C154.216 37.889 154.266 38.388 154.266 38.9531V39.6572H149.645V38.625H153.056V38.4541C153.037 38.0713 152.985 37.734 152.898 37.4424C152.816 37.1507 152.68 36.9229 152.488 36.7588C152.297 36.5902 152.026 36.5059 151.675 36.5059C151.452 36.5059 151.244 36.5446 151.053 36.6221C150.866 36.695 150.704 36.8249 150.567 37.0117C150.435 37.194 150.33 37.4469 150.253 37.7705C150.18 38.0941 150.144 38.5042 150.144 39.001V39.835C150.144 40.2314 150.18 40.5732 150.253 40.8604C150.33 41.1429 150.442 41.3776 150.588 41.5645C150.738 41.7467 150.921 41.8835 151.135 41.9746C151.354 42.0612 151.602 42.1045 151.88 42.1045C152.286 42.1045 152.62 42.027 152.885 41.8721C153.149 41.7126 153.379 41.5098 153.575 41.2637L154.211 42.0225C154.079 42.2093 153.906 42.3893 153.691 42.5625C153.482 42.7311 153.222 42.8701 152.912 42.9795C152.607 43.0843 152.24 43.1367 151.812 43.1367ZM156.799 36.7656V43H155.589V35.6035H156.757L156.799 36.7656ZM158.637 35.5625L158.644 36.7383C158.544 36.7155 158.453 36.7018 158.371 36.6973C158.293 36.6882 158.202 36.6836 158.097 36.6836C157.869 36.6836 157.669 36.7292 157.496 36.8203C157.327 36.9115 157.181 37.0391 157.058 37.2031C156.935 37.3672 156.837 37.5632 156.764 37.791C156.691 38.0143 156.641 38.2604 156.614 38.5293L156.299 38.7344C156.299 38.2878 156.334 37.8685 156.402 37.4766C156.475 37.0846 156.587 36.7383 156.737 36.4375C156.887 36.1322 157.079 35.8952 157.311 35.7266C157.548 35.5534 157.831 35.4668 158.159 35.4668C158.232 35.4668 158.321 35.4782 158.425 35.501C158.535 35.5192 158.605 35.5397 158.637 35.5625ZM170.143 37.0254V45.8438H168.933V35.6035H170.033L170.143 37.0254ZM174.279 38.9668V39.6572C174.279 40.2406 174.224 40.751 174.114 41.1885C174.01 41.6214 173.852 41.9837 173.643 42.2754C173.438 42.5625 173.185 42.779 172.884 42.9248C172.583 43.0661 172.239 43.1367 171.852 43.1367C171.464 43.1367 171.127 43.0638 170.84 42.918C170.558 42.7676 170.318 42.5511 170.122 42.2686C169.931 41.986 169.778 41.6465 169.664 41.25C169.555 40.849 169.48 40.4001 169.439 39.9033V38.8506C169.48 38.3265 169.555 37.8571 169.664 37.4424C169.774 37.0231 169.924 36.6676 170.115 36.376C170.311 36.0798 170.551 35.8542 170.833 35.6992C171.12 35.5443 171.455 35.4668 171.838 35.4668C172.235 35.4668 172.583 35.5352 172.884 35.6719C173.189 35.8086 173.445 36.0205 173.65 36.3076C173.859 36.5902 174.017 36.9525 174.121 37.3945C174.226 37.832 174.279 38.3561 174.279 38.9668ZM173.069 39.6572V38.9668C173.069 38.5566 173.037 38.1989 172.973 37.8936C172.914 37.5882 172.818 37.3353 172.686 37.1348C172.554 36.9342 172.387 36.7839 172.187 36.6836C171.986 36.5833 171.745 36.5332 171.462 36.5332C171.221 36.5332 171.006 36.5833 170.82 36.6836C170.637 36.7839 170.48 36.9206 170.348 37.0938C170.216 37.2624 170.106 37.4561 170.02 37.6748C169.933 37.889 169.869 38.1123 169.828 38.3447V40.416C169.906 40.7077 170.008 40.9834 170.136 41.2432C170.264 41.4984 170.434 41.7057 170.649 41.8652C170.867 42.0247 171.143 42.1045 171.476 42.1045C171.754 42.1045 171.993 42.0544 172.194 41.9541C172.394 41.8538 172.558 41.7035 172.686 41.5029C172.818 41.2979 172.914 41.0426 172.973 40.7373C173.037 40.4274 173.069 40.0674 173.069 39.6572ZM176.996 35.6035V43H175.793V35.6035H176.996ZM175.724 33.6416C175.724 33.4365 175.781 33.2633 175.895 33.1221C176.009 32.9808 176.18 32.9102 176.408 32.9102C176.636 32.9102 176.807 32.9808 176.921 33.1221C177.039 33.2633 177.099 33.4365 177.099 33.6416C177.099 33.8376 177.039 34.0062 176.921 34.1475C176.807 34.2842 176.636 34.3525 176.408 34.3525C176.18 34.3525 176.009 34.2842 175.895 34.1475C175.781 34.0062 175.724 33.8376 175.724 33.6416ZM182.393 41.7354V37.7227C182.393 37.431 182.348 37.1963 182.256 37.0186C182.17 36.8408 182.038 36.7109 181.86 36.6289C181.687 36.5469 181.468 36.5059 181.204 36.5059C180.948 36.5059 180.727 36.5583 180.541 36.6631C180.358 36.7679 180.217 36.9069 180.117 37.0801C180.021 37.2533 179.973 37.4447 179.973 37.6543H178.763C178.763 37.39 178.82 37.1279 178.934 36.8682C179.053 36.6084 179.221 36.3737 179.44 36.1641C179.659 35.9499 179.921 35.7812 180.226 35.6582C180.536 35.5306 180.882 35.4668 181.265 35.4668C181.721 35.4668 182.124 35.542 182.475 35.6924C182.826 35.8382 183.102 36.0775 183.302 36.4102C183.503 36.7428 183.603 37.1849 183.603 37.7363V41.3867C183.603 41.6328 183.621 41.8949 183.658 42.1729C183.699 42.4508 183.756 42.6901 183.829 42.8906V43H182.578C182.518 42.8542 182.473 42.6605 182.441 42.4189C182.409 42.1729 182.393 41.945 182.393 41.7354ZM182.584 38.5156L182.598 39.4043H181.757C181.47 39.4043 181.208 39.4362 180.971 39.5C180.739 39.5638 180.538 39.6572 180.37 39.7803C180.201 39.8988 180.071 40.0469 179.98 40.2246C179.893 40.4023 179.85 40.6051 179.85 40.833C179.85 41.1292 179.891 41.3662 179.973 41.5439C180.055 41.7171 180.178 41.8424 180.342 41.9199C180.506 41.9974 180.714 42.0361 180.964 42.0361C181.27 42.0361 181.539 41.9655 181.771 41.8242C182.003 41.6829 182.183 41.512 182.311 41.3115C182.443 41.111 182.505 40.9242 182.496 40.751L182.762 41.3184C182.744 41.4961 182.685 41.6898 182.584 41.8994C182.489 42.1045 182.354 42.3027 182.181 42.4941C182.008 42.681 181.803 42.8359 181.566 42.959C181.334 43.0775 181.071 43.1367 180.78 43.1367C180.351 43.1367 179.975 43.0547 179.652 42.8906C179.333 42.7266 179.084 42.485 178.907 42.166C178.729 41.847 178.64 41.4528 178.64 40.9834C178.64 40.6279 178.702 40.2998 178.825 39.999C178.948 39.6982 179.13 39.4385 179.372 39.2197C179.613 38.9964 179.916 38.8232 180.281 38.7002C180.65 38.5771 181.076 38.5156 181.559 38.5156H182.584ZM186.553 37.1826V43H185.343V35.6035H186.485L186.553 37.1826ZM186.259 39.0215L185.767 39.001C185.762 38.4951 185.819 38.028 185.938 37.5996C186.061 37.1667 186.234 36.7907 186.457 36.4717C186.685 36.1527 186.956 35.9066 187.271 35.7334C187.585 35.5557 187.934 35.4668 188.317 35.4668C188.617 35.4668 188.891 35.5169 189.137 35.6172C189.383 35.7129 189.593 35.8678 189.766 36.082C189.939 36.2962 190.071 36.5742 190.162 36.916C190.258 37.2533 190.306 37.6657 190.306 38.1533V43H189.096V38.1396C189.096 37.7523 189.053 37.4424 188.966 37.21C188.884 36.973 188.756 36.8021 188.583 36.6973C188.415 36.5879 188.2 36.5332 187.941 36.5332C187.704 36.5332 187.483 36.5993 187.277 36.7314C187.072 36.8636 186.892 37.0459 186.737 37.2783C186.587 37.5107 186.469 37.7773 186.382 38.0781C186.3 38.3743 186.259 38.6888 186.259 39.0215ZM193.283 35.6035V43H192.08V35.6035H193.283ZM192.012 33.6416C192.012 33.4365 192.068 33.2633 192.182 33.1221C192.296 32.9808 192.467 32.9102 192.695 32.9102C192.923 32.9102 193.094 32.9808 193.208 33.1221C193.326 33.2633 193.386 33.4365 193.386 33.6416C193.386 33.8376 193.326 34.0062 193.208 34.1475C193.094 34.2842 192.923 34.3525 192.695 34.3525C192.467 34.3525 192.296 34.2842 192.182 34.1475C192.068 34.0062 192.012 33.8376 192.012 33.6416ZM198.646 41.1064C198.646 40.9196 198.6 40.7555 198.509 40.6143C198.418 40.473 198.268 40.3363 198.058 40.2041C197.853 40.0719 197.575 39.9307 197.224 39.7803C196.882 39.639 196.575 39.5 196.301 39.3633C196.032 39.222 195.804 39.0693 195.618 38.9053C195.431 38.7412 195.287 38.5521 195.187 38.3379C195.091 38.1191 195.043 37.8617 195.043 37.5654C195.043 37.2692 195.098 36.9958 195.207 36.7451C195.321 36.4899 195.481 36.2666 195.686 36.0752C195.891 35.8838 196.137 35.7357 196.424 35.6309C196.711 35.5215 197.033 35.4668 197.388 35.4668C197.894 35.4668 198.325 35.5648 198.68 35.7607C199.036 35.9567 199.307 36.2256 199.494 36.5674C199.685 36.9046 199.781 37.2852 199.781 37.709H198.578C198.578 37.5039 198.532 37.3102 198.441 37.1279C198.35 36.9456 198.215 36.7975 198.038 36.6836C197.86 36.5651 197.643 36.5059 197.388 36.5059C197.119 36.5059 196.9 36.5537 196.732 36.6494C196.563 36.7451 196.44 36.8704 196.363 37.0254C196.29 37.1758 196.253 37.3421 196.253 37.5244C196.253 37.6611 196.272 37.7796 196.308 37.8799C196.349 37.9756 196.417 38.0667 196.513 38.1533C196.609 38.2354 196.739 38.3219 196.903 38.4131C197.071 38.4997 197.286 38.5999 197.545 38.7139C198.047 38.9098 198.468 39.1081 198.81 39.3086C199.152 39.5091 199.412 39.7438 199.589 40.0127C199.767 40.2816 199.856 40.6143 199.856 41.0107C199.856 41.3343 199.797 41.6283 199.678 41.8926C199.564 42.1523 199.4 42.3757 199.186 42.5625C198.972 42.7493 198.714 42.8929 198.414 42.9932C198.117 43.0889 197.785 43.1367 197.415 43.1367C196.859 43.1367 196.388 43.0273 196 42.8086C195.618 42.5853 195.326 42.2959 195.125 41.9404C194.929 41.5804 194.831 41.1953 194.831 40.7852H196.041C196.055 41.1315 196.133 41.4004 196.274 41.5918C196.42 41.7832 196.595 41.9154 196.8 41.9883C197.005 42.0612 197.21 42.0977 197.415 42.0977C197.684 42.0977 197.91 42.0589 198.092 41.9814C198.275 41.8994 198.411 41.7832 198.502 41.6328C198.598 41.4824 198.646 41.307 198.646 41.1064ZM204.002 35.6035V36.5742H200.55V35.6035H204.002ZM201.678 33.8057H202.888V41.168C202.888 41.4186 202.917 41.6077 202.977 41.7354C203.04 41.863 203.12 41.9473 203.216 41.9883C203.312 42.0293 203.414 42.0498 203.524 42.0498C203.606 42.0498 203.697 42.0407 203.797 42.0225C203.897 41.9997 203.966 41.9814 204.002 41.9678L203.995 43C203.913 43.0319 203.804 43.0615 203.667 43.0889C203.53 43.1208 203.357 43.1367 203.148 43.1367C202.888 43.1367 202.646 43.0752 202.423 42.9521C202.2 42.8291 202.02 42.624 201.883 42.3369C201.746 42.0452 201.678 41.6533 201.678 41.1611V33.8057ZM208.927 41.7354V37.7227C208.927 37.431 208.882 37.1963 208.791 37.0186C208.704 36.8408 208.572 36.7109 208.394 36.6289C208.221 36.5469 208.002 36.5059 207.738 36.5059C207.483 36.5059 207.262 36.5583 207.075 36.6631C206.893 36.7679 206.751 36.9069 206.651 37.0801C206.555 37.2533 206.508 37.4447 206.508 37.6543H205.298C205.298 37.39 205.355 37.1279 205.468 36.8682C205.587 36.6084 205.756 36.3737 205.974 36.1641C206.193 35.9499 206.455 35.7812 206.76 35.6582C207.07 35.5306 207.417 35.4668 207.8 35.4668C208.255 35.4668 208.659 35.542 209.009 35.6924C209.36 35.8382 209.636 36.0775 209.837 36.4102C210.037 36.7428 210.137 37.1849 210.137 37.7363V41.3867C210.137 41.6328 210.156 41.8949 210.192 42.1729C210.233 42.4508 210.29 42.6901 210.363 42.8906V43H209.112C209.053 42.8542 209.007 42.6605 208.975 42.4189C208.943 42.1729 208.927 41.945 208.927 41.7354ZM209.119 38.5156L209.133 39.4043H208.292C208.005 39.4043 207.743 39.4362 207.506 39.5C207.273 39.5638 207.073 39.6572 206.904 39.7803C206.735 39.8988 206.606 40.0469 206.514 40.2246C206.428 40.4023 206.384 40.6051 206.384 40.833C206.384 41.1292 206.426 41.3662 206.508 41.5439C206.59 41.7171 206.713 41.8424 206.877 41.9199C207.041 41.9974 207.248 42.0361 207.499 42.0361C207.804 42.0361 208.073 41.9655 208.305 41.8242C208.538 41.6829 208.718 41.512 208.845 41.3115C208.978 41.111 209.039 40.9242 209.03 40.751L209.297 41.3184C209.278 41.4961 209.219 41.6898 209.119 41.8994C209.023 42.1045 208.889 42.3027 208.716 42.4941C208.542 42.681 208.337 42.8359 208.1 42.959C207.868 43.0775 207.606 43.1367 207.314 43.1367C206.886 43.1367 206.51 43.0547 206.186 42.8906C205.867 42.7266 205.619 42.485 205.441 42.166C205.263 41.847 205.175 41.4528 205.175 40.9834C205.175 40.6279 205.236 40.2998 205.359 39.999C205.482 39.6982 205.664 39.4385 205.906 39.2197C206.148 38.9964 206.451 38.8232 206.815 38.7002C207.184 38.5771 207.61 38.5156 208.093 38.5156H209.119Z" fill="#B3B3A8"/>
<circle cx="163.5" cy="39.5" r="1.5" transform="rotate(-90 163.5 39.5)" fill="#B3B3A8"/>
</svg>
