<svg width="211" height="26" viewBox="0 0 211 26" fill="none" xmlns="http://www.w3.org/2000/svg">
<path d="M6.68 25.3C5.16 25.3 3.94 24.98 3.02 24.34C2.12 23.68 1.46 22.73 1.04 21.49C0.64 20.25 0.44 18.76 0.44 17.02V8.89C0.44 7.11 0.62 5.6 0.98 4.36C1.36 3.1 2.02 2.14 2.96 1.48C3.92 0.819999 5.25 0.489999 6.95 0.489999C8.47 0.489999 9.69 0.749999 10.61 1.27C11.55 1.77 12.23 2.55 12.65 3.61C13.07 4.65 13.28 5.97 13.28 7.57V8.47H10.1V7.72C10.1 6.66 10.03 5.8 9.89 5.14C9.75 4.46 9.46 3.96 9.02 3.64C8.6 3.3 7.93 3.13 7.01 3.13C6.01 3.13 5.28 3.36 4.82 3.82C4.38 4.28 4.1 4.91 3.98 5.71C3.88 6.49 3.83 7.38 3.83 8.38V17.38C3.83 18.54 3.91 19.51 4.07 20.29C4.25 21.07 4.58 21.65 5.06 22.03C5.54 22.41 6.22 22.6 7.1 22.6C7.98 22.6 8.66 22.39 9.14 21.97C9.62 21.55 9.95 20.93 10.13 20.11C10.31 19.29 10.4 18.27 10.4 17.05V15.37H7.31V12.97H13.46V25H11.33L11 22.21C10.68 23.11 10.18 23.85 9.5 24.43C8.82 25.01 7.88 25.3 6.68 25.3ZM17.1247 25V0.699998H20.4547V25H17.1247ZM30.6561 25.27C28.8961 25.27 27.5461 24.92 26.6061 24.22C25.6661 23.52 25.0261 22.54 24.6861 21.28C24.3461 20 24.1761 18.51 24.1761 16.81V0.699998H27.4161V16.96C27.4161 18 27.4861 18.95 27.6261 19.81C27.7661 20.67 28.0661 21.35 28.5261 21.85C29.0061 22.35 29.7161 22.6 30.6561 22.6C31.6161 22.6 32.3261 22.35 32.7861 21.85C33.2461 21.35 33.5461 20.67 33.6861 19.81C33.8261 18.95 33.8961 18 33.8961 16.96V0.699998H37.1061V16.81C37.1061 18.51 36.9361 20 36.5961 21.28C36.2561 22.54 35.6161 23.52 34.6761 24.22C33.7561 24.92 32.4161 25.27 30.6561 25.27ZM46.4052 25.27C45.0052 25.27 43.8352 24.97 42.8952 24.37C41.9752 23.77 41.2752 22.94 40.7952 21.88C40.3152 20.82 40.0352 19.59 39.9552 18.19L42.9552 17.38C43.0152 18.24 43.1452 19.07 43.3452 19.87C43.5652 20.67 43.9152 21.33 44.3952 21.85C44.8752 22.35 45.5452 22.6 46.4052 22.6C47.2852 22.6 47.9452 22.36 48.3852 21.88C48.8452 21.38 49.0752 20.67 49.0752 19.75C49.0752 18.65 48.8252 17.77 48.3252 17.11C47.8252 16.43 47.1952 15.75 46.4352 15.07L42.3552 11.47C41.5552 10.77 40.9652 10.01 40.5852 9.19C40.2052 8.35 40.0152 7.32 40.0152 6.1C40.0152 4.32 40.5252 2.94 41.5452 1.96C42.5652 0.979999 43.9552 0.489999 45.7152 0.489999C46.6752 0.489999 47.5152 0.619999 48.2352 0.879999C48.9752 1.12 49.5852 1.5 50.0652 2.02C50.5652 2.54 50.9552 3.2 51.2352 4C51.5352 4.78 51.7352 5.7 51.8352 6.76L48.9552 7.54C48.8952 6.74 48.7752 6.01 48.5952 5.35C48.4152 4.67 48.0952 4.13 47.6352 3.73C47.1952 3.31 46.5552 3.1 45.7152 3.1C44.8752 3.1 44.2152 3.33 43.7352 3.79C43.2752 4.23 43.0452 4.89 43.0452 5.77C43.0452 6.51 43.1652 7.12 43.4052 7.6C43.6652 8.08 44.0752 8.57 44.6352 9.07L48.7452 12.67C49.6652 13.47 50.4752 14.43 51.1752 15.55C51.8752 16.65 52.2252 17.96 52.2252 19.48C52.2252 20.68 51.9752 21.72 51.4752 22.6C50.9752 23.46 50.2852 24.12 49.4052 24.58C48.5452 25.04 47.5452 25.27 46.4052 25.27ZM54.8548 25V0.699998H64.2748V3.22H58.2448V11.26H63.1348V13.66H58.2448V22.57H64.3348V25H54.8548ZM67.0716 25V0.699998H73.1016C74.5616 0.699998 75.7216 0.969998 76.5816 1.51C77.4616 2.03 78.1016 2.79 78.5016 3.79C78.9016 4.79 79.1016 6 79.1016 7.42C79.1016 8.7 78.8716 9.81 78.4116 10.75C77.9716 11.69 77.3116 12.42 76.4316 12.94C75.5516 13.44 74.4516 13.69 73.1316 13.69H70.4616V25H67.0716ZM70.4616 11.26H72.0216C73.0016 11.26 73.7716 11.15 74.3316 10.93C74.8916 10.71 75.2916 10.33 75.5316 9.79C75.7716 9.23 75.8916 8.45 75.8916 7.45C75.8916 6.29 75.8016 5.4 75.6216 4.78C75.4616 4.16 75.1116 3.73 74.5716 3.49C74.0316 3.25 73.1916 3.13 72.0516 3.13H70.4616V11.26ZM81.4857 25V0.699998H87.5157C88.9757 0.699998 90.1357 0.969998 90.9957 1.51C91.8757 2.03 92.5157 2.79 92.9157 3.79C93.3157 4.79 93.5157 6 93.5157 7.42C93.5157 8.7 93.2857 9.81 92.8257 10.75C92.3857 11.69 91.7257 12.42 90.8457 12.94C89.9657 13.44 88.8657 13.69 87.5457 13.69H84.8757V25H81.4857ZM84.8757 11.26H86.4357C87.4157 11.26 88.1857 11.15 88.7457 10.93C89.3057 10.71 89.7057 10.33 89.9457 9.79C90.1857 9.23 90.3057 8.45 90.3057 7.45C90.3057 6.29 90.2157 5.4 90.0357 4.78C89.8757 4.16 89.5257 3.73 88.9857 3.49C88.4457 3.25 87.6057 3.13 86.4657 3.13H84.8757V11.26ZM95.8998 25V0.699998H105.32V3.22H99.2898V11.26H104.18V13.66H99.2898V22.57H105.38V25H95.8998ZM120.702 25.27C119.302 25.27 118.132 24.97 117.192 24.37C116.272 23.77 115.572 22.94 115.092 21.88C114.612 20.82 114.332 19.59 114.252 18.19L117.252 17.38C117.312 18.24 117.442 19.07 117.642 19.87C117.862 20.67 118.212 21.33 118.692 21.85C119.172 22.35 119.842 22.6 120.702 22.6C121.582 22.6 122.242 22.36 122.682 21.88C123.142 21.38 123.372 20.67 123.372 19.75C123.372 18.65 123.122 17.77 122.622 17.11C122.122 16.43 121.492 15.75 120.732 15.07L116.652 11.47C115.852 10.77 115.262 10.01 114.882 9.19C114.502 8.35 114.312 7.32 114.312 6.1C114.312 4.32 114.822 2.94 115.842 1.96C116.862 0.979999 118.252 0.489999 120.012 0.489999C120.972 0.489999 121.812 0.619999 122.532 0.879999C123.272 1.12 123.882 1.5 124.362 2.02C124.862 2.54 125.252 3.2 125.532 4C125.832 4.78 126.032 5.7 126.132 6.76L123.252 7.54C123.192 6.74 123.072 6.01 122.892 5.35C122.712 4.67 122.392 4.13 121.932 3.73C121.492 3.31 120.852 3.1 120.012 3.1C119.172 3.1 118.512 3.33 118.032 3.79C117.572 4.23 117.342 4.89 117.342 5.77C117.342 6.51 117.462 7.12 117.702 7.6C117.962 8.08 118.372 8.57 118.932 9.07L123.042 12.67C123.962 13.47 124.772 14.43 125.472 15.55C126.172 16.65 126.522 17.96 126.522 19.48C126.522 20.68 126.272 21.72 125.772 22.6C125.272 23.46 124.582 24.12 123.702 24.58C122.842 25.04 121.842 25.27 120.702 25.27ZM129.152 25V0.699998H135.182C136.642 0.699998 137.802 0.969998 138.662 1.51C139.542 2.03 140.182 2.79 140.582 3.79C140.982 4.79 141.182 6 141.182 7.42C141.182 8.7 140.952 9.81 140.492 10.75C140.052 11.69 139.392 12.42 138.512 12.94C137.632 13.44 136.532 13.69 135.212 13.69H132.542V25H129.152ZM132.542 11.26H134.102C135.082 11.26 135.852 11.15 136.412 10.93C136.972 10.71 137.372 10.33 137.612 9.79C137.852 9.23 137.972 8.45 137.972 7.45C137.972 6.29 137.882 5.4 137.702 4.78C137.542 4.16 137.192 3.73 136.652 3.49C136.112 3.25 135.272 3.13 134.132 3.13H132.542V11.26ZM140.898 25L146.058 0.699998H149.328L154.518 25H151.308L150.198 18.88H145.248L144.078 25H140.898ZM145.698 16.45H149.748L147.708 5.5L145.698 16.45ZM158.423 25V3.22H154.313V0.699998H165.803V3.22H161.813V25H158.423ZM165.595 25L170.755 0.699998H174.025L179.215 25H176.005L174.895 18.88H169.945L168.775 25H165.595ZM170.395 16.45H174.445L172.405 5.5L170.395 16.45ZM181.681 25V0.699998H186.571C188.191 0.699998 189.531 0.919998 190.591 1.36C191.651 1.78 192.431 2.47 192.931 3.43C193.451 4.37 193.711 5.61 193.711 7.15C193.711 8.09 193.611 8.95 193.411 9.73C193.211 10.49 192.891 11.14 192.451 11.68C192.011 12.2 191.431 12.58 190.711 12.82L194.161 25H190.891L187.711 13.6H185.071V25H181.681ZM185.071 11.17H186.361C187.321 11.17 188.101 11.05 188.701 10.81C189.301 10.57 189.741 10.16 190.021 9.58C190.301 9 190.441 8.19 190.441 7.15C190.441 5.73 190.181 4.71 189.661 4.09C189.141 3.45 188.111 3.13 186.571 3.13H185.071V11.17ZM203.36 25.27C201.72 25.27 200.41 24.95 199.43 24.31C198.45 23.67 197.75 22.76 197.33 21.58C196.91 20.38 196.7 18.98 196.7 17.38V8.17C196.7 6.57 196.91 5.2 197.33 4.06C197.77 2.9 198.47 2.02 199.43 1.42C200.41 0.799999 201.72 0.489999 203.36 0.489999C205 0.489999 206.3 0.799999 207.26 1.42C208.22 2.04 208.91 2.92 209.33 4.06C209.77 5.2 209.99 6.57 209.99 8.17V17.41C209.99 18.99 209.77 20.37 209.33 21.55C208.91 22.73 208.22 23.65 207.26 24.31C206.3 24.95 205 25.27 203.36 25.27ZM203.36 22.6C204.26 22.6 204.94 22.42 205.4 22.06C205.86 21.68 206.17 21.16 206.33 20.5C206.49 19.82 206.57 19.03 206.57 18.13V7.48C206.57 6.58 206.49 5.81 206.33 5.17C206.17 4.51 205.86 4.01 205.4 3.67C204.94 3.31 204.26 3.13 203.36 3.13C202.46 3.13 201.77 3.31 201.29 3.67C200.83 4.01 200.52 4.51 200.36 5.17C200.2 5.81 200.12 6.58 200.12 7.48V18.13C200.12 19.03 200.2 19.82 200.36 20.5C200.52 21.16 200.83 21.68 201.29 22.06C201.77 22.42 202.46 22.6 203.36 22.6Z" fill="currentColor"/>
</svg>
